<svg width="44" height="44" xmlns="http://www.w3.org/2000/svg" xmlns:xlink="http://www.w3.org/1999/xlink" xml:space="preserve" overflow="hidden"><g transform="translate(-685 -373)"><path d="M715.708 380.104C715.708 382.129 714.067 383.771 712.042 383.771 710.017 383.771 708.375 382.129 708.375 380.104 708.375 378.079 710.017 376.438 712.042 376.438 714.067 376.438 715.708 378.079 715.708 380.104Z" stroke="#000000" stroke-width="0.45829" fill="#00B050"/><path d="M695.542 397.979C691.233 397.979 687.75 401.462 687.75 405.771 687.75 410.079 691.233 413.562 695.542 413.562 699.85 413.562 703.333 410.079 703.333 405.771 703.333 401.462 699.85 397.979 695.542 397.979ZM695.542 411.729C692.242 411.729 689.583 409.071 689.583 405.771 689.583 402.471 692.242 399.812 695.542 399.812 698.842 399.812 701.5 402.471 701.5 405.771 701.5 409.071 698.842 411.729 695.542 411.729Z" stroke="#000000" stroke-width="0.45829" fill="#00B050"/><path d="M718.458 397.979C714.15 397.979 710.667 401.462 710.667 405.771 710.667 410.079 714.15 413.562 718.458 413.562 722.767 413.562 726.25 410.079 726.25 405.771 726.25 401.462 722.767 397.979 718.458 397.979ZM718.458 411.729C715.158 411.729 712.5 409.071 712.5 405.771 712.5 402.471 715.158 399.812 718.458 399.812 721.758 399.812 724.417 402.471 724.417 405.771 724.417 409.071 721.758 411.729 718.458 411.729Z" stroke="#000000" stroke-width="0.45829" fill="#00B050"/><path d="M710.529 391.242C710.896 391.608 711.354 391.792 711.812 391.792L717.083 391.792C718.092 391.792 718.917 390.967 718.917 389.958 718.917 388.95 718.092 388.125 717.083 388.125L712.592 388.125C712.592 388.125 707.367 382.854 707.275 382.808 706.129 381.8 704.388 381.938 703.379 383.083L697.146 390.188C696.138 391.333 696.275 393.075 697.375 394.083 697.65 394.312 697.925 394.496 698.246 394.587L698.246 394.587 705.121 397.337 705.121 405.725C705.121 406.733 705.946 407.558 706.954 407.558 707.963 407.558 708.787 406.733 708.787 405.725L708.787 396.1C708.787 395.367 708.329 394.679 707.688 394.404L702.6 392.25 706.771 387.483 710.529 391.242Z" stroke="#000000" stroke-width="0.45829" fill="#00B050"/></g></svg>